# xmcd CD database file
#
# Track frame offsets:
#	150
#	19107
#	38567
#	59117
#	82567
#	105017
#	124732
#	146082
#	164922
#	188330
#
# Disc length: 2770 seconds
#
# Revision: 3
# Processed by: cddbd v1.5.2PL0 Copyright (c) Steve Scherf et al.
# Submitted via: CDex 1.70beta3
#
DISCID=770ad00a
DTITLE=柳ジョージ - WILLOW'S GATE
DYEAR=1988
DGENRE=J-Rock
TTITLE0=STAY ～ボトルネックが泣いている～
TTITLE1=HOLLYWOOD BLUE
TTITLE2=今夜はノーモア・ブルース
TTITLE3=ICE SONG
TTITLE4=引金
TTITLE5=HOOCHIE COOCHIE MAN
TTITLE6=真夜中の追跡者
TTITLE7=夜明けの漂着
TTITLE8=SO LONG
TTITLE9=置き去りの夢
EXTD=YEAR: 1988
EXTT0=
EXTT1=
EXTT2=
EXTT3=
EXTT4=
EXTT5=
EXTT6=
EXTT7=
EXTT8=
EXTT9=
PLAYORDER=
